<mxfile host="65bd71144e" pages="2">
    <diagram id="8dbwGfkumUQ9PZ-0Ag16" name="Page-1">
        <mxGraphModel dx="2521" dy="2084" grid="1" gridSize="10" guides="1" tooltips="1" connect="1" arrows="1" fold="1" page="1" pageScale="1" pageWidth="850" pageHeight="1100" math="0" shadow="0">
            <root>
                <mxCell id="0"/>
                <mxCell id="1" parent="0"/>
                <mxCell id="rVlqbmgQ-LGlEKJooQ9A-7" style="edgeStyle=orthogonalEdgeStyle;rounded=0;orthogonalLoop=1;jettySize=auto;html=1;exitX=0.5;exitY=0;exitDx=0;exitDy=0;entryX=0.5;entryY=1;entryDx=0;entryDy=0;startArrow=none;startFill=0;" parent="1" source="hQpjy7H182rVToQNGWJy-1" target="rVlqbmgQ-LGlEKJooQ9A-6" edge="1">
                    <mxGeometry relative="1" as="geometry"/>
                </mxCell>
                <mxCell id="hQpjy7H182rVToQNGWJy-1" value="Write posts" style="rounded=0;whiteSpace=wrap;html=1;" parent="1" vertex="1">
                    <mxGeometry x="155" y="260" width="120" height="60" as="geometry"/>
                </mxCell>
                <mxCell id="rVlqbmgQ-LGlEKJooQ9A-8" style="edgeStyle=orthogonalEdgeStyle;rounded=0;orthogonalLoop=1;jettySize=auto;html=1;startArrow=none;startFill=0;" parent="1" source="hQpjy7H182rVToQNGWJy-2" edge="1">
                    <mxGeometry relative="1" as="geometry">
                        <mxPoint x="430" y="130" as="targetPoint"/>
                    </mxGeometry>
                </mxCell>
                <mxCell id="hQpjy7H182rVToQNGWJy-2" value="Write comments" style="rounded=0;whiteSpace=wrap;html=1;" parent="1" vertex="1">
                    <mxGeometry x="370" y="200" width="120" height="60" as="geometry"/>
                </mxCell>
                <mxCell id="rVlqbmgQ-LGlEKJooQ9A-13" style="edgeStyle=orthogonalEdgeStyle;rounded=0;orthogonalLoop=1;jettySize=auto;html=1;exitX=0;exitY=0.5;exitDx=0;exitDy=0;entryX=1;entryY=0.5;entryDx=0;entryDy=0;startArrow=classic;startFill=1;endArrow=none;endFill=0;" parent="1" source="hQpjy7H182rVToQNGWJy-4" target="rVlqbmgQ-LGlEKJooQ9A-6" edge="1">
                    <mxGeometry relative="1" as="geometry"/>
                </mxCell>
                <mxCell id="rVlqbmgQ-LGlEKJooQ9A-21" style="edgeStyle=orthogonalEdgeStyle;rounded=0;orthogonalLoop=1;jettySize=auto;html=1;entryX=0;entryY=0.5;entryDx=0;entryDy=0;entryPerimeter=0;startArrow=none;startFill=0;endArrow=classic;endFill=1;" parent="1" source="hQpjy7H182rVToQNGWJy-4" target="rVlqbmgQ-LGlEKJooQ9A-20" edge="1">
                    <mxGeometry relative="1" as="geometry"/>
                </mxCell>
                <mxCell id="hQpjy7H182rVToQNGWJy-4" value="Read post and comment" style="rounded=0;whiteSpace=wrap;html=1;" parent="1" vertex="1">
                    <mxGeometry x="600" y="200" width="120" height="60" as="geometry"/>
                </mxCell>
                <mxCell id="hQpjy7H182rVToQNGWJy-9" value="" style="edgeStyle=orthogonalEdgeStyle;rounded=0;orthogonalLoop=1;jettySize=auto;html=1;startArrow=classic;startFill=1;endArrow=none;endFill=0;" parent="1" source="hQpjy7H182rVToQNGWJy-5" target="hQpjy7H182rVToQNGWJy-1" edge="1">
                    <mxGeometry relative="1" as="geometry"/>
                </mxCell>
                <mxCell id="rVlqbmgQ-LGlEKJooQ9A-52" style="edgeStyle=orthogonalEdgeStyle;rounded=0;orthogonalLoop=1;jettySize=auto;html=1;entryX=0;entryY=0.5;entryDx=0;entryDy=0;startArrow=none;startFill=0;endArrow=classic;endFill=1;" parent="1" source="hQpjy7H182rVToQNGWJy-5" target="rVlqbmgQ-LGlEKJooQ9A-46" edge="1">
                    <mxGeometry relative="1" as="geometry"/>
                </mxCell>
                <mxCell id="hQpjy7H182rVToQNGWJy-5" value="MongoDB" style="shape=cylinder3;whiteSpace=wrap;html=1;boundedLbl=1;backgroundOutline=1;size=15;" parent="1" vertex="1">
                    <mxGeometry x="185" y="380" width="60" height="80" as="geometry"/>
                </mxCell>
                <mxCell id="hQpjy7H182rVToQNGWJy-10" value="" style="edgeStyle=orthogonalEdgeStyle;rounded=0;orthogonalLoop=1;jettySize=auto;html=1;startArrow=classic;startFill=1;endArrow=none;endFill=0;" parent="1" source="hQpjy7H182rVToQNGWJy-6" target="hQpjy7H182rVToQNGWJy-2" edge="1">
                    <mxGeometry relative="1" as="geometry"/>
                </mxCell>
                <mxCell id="rVlqbmgQ-LGlEKJooQ9A-53" style="edgeStyle=orthogonalEdgeStyle;rounded=0;orthogonalLoop=1;jettySize=auto;html=1;exitX=0.5;exitY=1;exitDx=0;exitDy=0;exitPerimeter=0;entryX=0.5;entryY=0;entryDx=0;entryDy=0;startArrow=none;startFill=0;endArrow=classic;endFill=1;" parent="1" source="hQpjy7H182rVToQNGWJy-6" target="rVlqbmgQ-LGlEKJooQ9A-46" edge="1">
                    <mxGeometry relative="1" as="geometry"/>
                </mxCell>
                <mxCell id="hQpjy7H182rVToQNGWJy-6" value="MongoDB" style="shape=cylinder3;whiteSpace=wrap;html=1;boundedLbl=1;backgroundOutline=1;size=15;" parent="1" vertex="1">
                    <mxGeometry x="400" y="320" width="60" height="80" as="geometry"/>
                </mxCell>
                <mxCell id="hQpjy7H182rVToQNGWJy-12" value="" style="edgeStyle=orthogonalEdgeStyle;rounded=0;orthogonalLoop=1;jettySize=auto;html=1;startArrow=classic;startFill=1;" parent="1" source="hQpjy7H182rVToQNGWJy-8" target="hQpjy7H182rVToQNGWJy-4" edge="1">
                    <mxGeometry relative="1" as="geometry"/>
                </mxCell>
                <mxCell id="rVlqbmgQ-LGlEKJooQ9A-54" style="edgeStyle=orthogonalEdgeStyle;rounded=0;orthogonalLoop=1;jettySize=auto;html=1;entryX=1;entryY=0.5;entryDx=0;entryDy=0;startArrow=none;startFill=0;endArrow=classic;endFill=1;" parent="1" source="hQpjy7H182rVToQNGWJy-8" target="rVlqbmgQ-LGlEKJooQ9A-46" edge="1">
                    <mxGeometry relative="1" as="geometry"/>
                </mxCell>
                <mxCell id="hQpjy7H182rVToQNGWJy-8" value="MongoDB" style="shape=cylinder3;whiteSpace=wrap;html=1;boundedLbl=1;backgroundOutline=1;size=15;" parent="1" vertex="1">
                    <mxGeometry x="630" y="320" width="60" height="80" as="geometry"/>
                </mxCell>
                <mxCell id="rVlqbmgQ-LGlEKJooQ9A-6" value="Communicate interface" style="shape=process;whiteSpace=wrap;html=1;backgroundOutline=1;fontFamily=Helvetica;fontSize=12;fontColor=#000000;align=center;strokeColor=#000000;fillColor=#ffffff;" parent="1" vertex="1">
                    <mxGeometry x="370" y="70" width="120" height="60" as="geometry"/>
                </mxCell>
                <mxCell id="rVlqbmgQ-LGlEKJooQ9A-19" style="edgeStyle=orthogonalEdgeStyle;rounded=0;orthogonalLoop=1;jettySize=auto;html=1;entryX=0;entryY=0.5;entryDx=0;entryDy=0;startArrow=none;startFill=0;endArrow=classic;endFill=1;" parent="1" source="rVlqbmgQ-LGlEKJooQ9A-18" target="hQpjy7H182rVToQNGWJy-2" edge="1">
                    <mxGeometry relative="1" as="geometry"/>
                </mxCell>
                <mxCell id="3uQAn1fJEeTq8zL6ZX9e-6" style="edgeStyle=orthogonalEdgeStyle;rounded=0;orthogonalLoop=1;jettySize=auto;html=1;entryX=0;entryY=0.5;entryDx=0;entryDy=0;" parent="1" source="rVlqbmgQ-LGlEKJooQ9A-18" target="rVlqbmgQ-LGlEKJooQ9A-23" edge="1">
                    <mxGeometry relative="1" as="geometry"/>
                </mxCell>
                <mxCell id="3uQAn1fJEeTq8zL6ZX9e-7" style="edgeStyle=orthogonalEdgeStyle;rounded=0;orthogonalLoop=1;jettySize=auto;html=1;entryX=0;entryY=0.5;entryDx=0;entryDy=0;" parent="1" source="rVlqbmgQ-LGlEKJooQ9A-18" target="rVlqbmgQ-LGlEKJooQ9A-24" edge="1">
                    <mxGeometry relative="1" as="geometry"/>
                </mxCell>
                <mxCell id="rVlqbmgQ-LGlEKJooQ9A-18" value="" style="verticalLabelPosition=bottom;html=1;verticalAlign=top;align=center;strokeColor=none;fillColor=#00BEF2;shape=mxgraph.azure.computer;pointerEvents=1;" parent="1" vertex="1">
                    <mxGeometry x="-90" y="57.5" width="50" height="45" as="geometry"/>
                </mxCell>
                <mxCell id="rVlqbmgQ-LGlEKJooQ9A-20" value="" style="verticalLabelPosition=bottom;html=1;verticalAlign=top;align=center;strokeColor=none;fillColor=#00BEF2;shape=mxgraph.azure.computer;pointerEvents=1;" parent="1" vertex="1">
                    <mxGeometry x="800" y="140" width="50" height="45" as="geometry"/>
                </mxCell>
                <mxCell id="rVlqbmgQ-LGlEKJooQ9A-64" value="" style="edgeStyle=orthogonalEdgeStyle;rounded=0;orthogonalLoop=1;jettySize=auto;html=1;startArrow=none;startFill=0;endArrow=classic;endFill=1;" parent="1" source="rVlqbmgQ-LGlEKJooQ9A-33" target="hQpjy7H182rVToQNGWJy-1" edge="1">
                    <mxGeometry relative="1" as="geometry"/>
                </mxCell>
                <mxCell id="rVlqbmgQ-LGlEKJooQ9A-33" value="" style="verticalLabelPosition=bottom;html=1;verticalAlign=top;align=center;strokeColor=none;fillColor=#00BEF2;shape=mxgraph.azure.computer;pointerEvents=1;" parent="1" vertex="1">
                    <mxGeometry x="75" y="267.5" width="50" height="45" as="geometry"/>
                </mxCell>
                <mxCell id="rVlqbmgQ-LGlEKJooQ9A-37" value="" style="swimlane;startSize=0;" parent="1" vertex="1">
                    <mxGeometry x="210" y="-192.5" width="300" height="230" as="geometry"/>
                </mxCell>
                <mxCell id="3uQAn1fJEeTq8zL6ZX9e-25" style="edgeStyle=orthogonalEdgeStyle;rounded=0;orthogonalLoop=1;jettySize=auto;html=1;entryX=0;entryY=0.5;entryDx=0;entryDy=0;entryPerimeter=0;" parent="rVlqbmgQ-LGlEKJooQ9A-37" source="rVlqbmgQ-LGlEKJooQ9A-24" target="rVlqbmgQ-LGlEKJooQ9A-25" edge="1">
                    <mxGeometry relative="1" as="geometry"/>
                </mxCell>
                <mxCell id="rVlqbmgQ-LGlEKJooQ9A-24" value="Temporary store" style="rounded=0;whiteSpace=wrap;html=1;" parent="rVlqbmgQ-LGlEKJooQ9A-37" vertex="1">
                    <mxGeometry x="10" y="145" width="120" height="60" as="geometry"/>
                </mxCell>
                <mxCell id="2" value="" style="edgeStyle=none;html=1;" parent="rVlqbmgQ-LGlEKJooQ9A-37" source="rVlqbmgQ-LGlEKJooQ9A-23" target="rVlqbmgQ-LGlEKJooQ9A-24" edge="1">
                    <mxGeometry relative="1" as="geometry"/>
                </mxCell>
                <mxCell id="rVlqbmgQ-LGlEKJooQ9A-23" value="Temporary store" style="rounded=0;whiteSpace=wrap;html=1;" parent="rVlqbmgQ-LGlEKJooQ9A-37" vertex="1">
                    <mxGeometry x="10" y="40" width="120" height="60" as="geometry"/>
                </mxCell>
                <mxCell id="rVlqbmgQ-LGlEKJooQ9A-25" value="MongoDB" style="shape=cylinder3;whiteSpace=wrap;html=1;boundedLbl=1;backgroundOutline=1;size=15;" parent="rVlqbmgQ-LGlEKJooQ9A-37" vertex="1">
                    <mxGeometry x="205" y="82.5" width="60" height="80" as="geometry"/>
                </mxCell>
                <mxCell id="rVlqbmgQ-LGlEKJooQ9A-27" style="edgeStyle=orthogonalEdgeStyle;rounded=0;orthogonalLoop=1;jettySize=auto;html=1;entryX=0;entryY=0.5;entryDx=0;entryDy=0;entryPerimeter=0;startArrow=none;startFill=0;endArrow=classic;endFill=1;" parent="rVlqbmgQ-LGlEKJooQ9A-37" source="rVlqbmgQ-LGlEKJooQ9A-23" target="rVlqbmgQ-LGlEKJooQ9A-25" edge="1">
                    <mxGeometry relative="1" as="geometry"/>
                </mxCell>
                <mxCell id="rVlqbmgQ-LGlEKJooQ9A-46" value="Manage data" style="rounded=0;whiteSpace=wrap;html=1;" parent="1" vertex="1">
                    <mxGeometry x="370" y="460" width="120" height="60" as="geometry"/>
                </mxCell>
                <mxCell id="rVlqbmgQ-LGlEKJooQ9A-62" style="edgeStyle=orthogonalEdgeStyle;rounded=0;orthogonalLoop=1;jettySize=auto;html=1;entryX=0.5;entryY=1;entryDx=0;entryDy=0;startArrow=none;startFill=0;endArrow=classic;endFill=1;" parent="1" source="rVlqbmgQ-LGlEKJooQ9A-55" target="rVlqbmgQ-LGlEKJooQ9A-46" edge="1">
                    <mxGeometry relative="1" as="geometry"/>
                </mxCell>
                <mxCell id="rVlqbmgQ-LGlEKJooQ9A-55" value="" style="verticalLabelPosition=bottom;html=1;verticalAlign=top;align=center;strokeColor=none;fillColor=#00BEF2;shape=mxgraph.azure.computer;pointerEvents=1;" parent="1" vertex="1">
                    <mxGeometry x="235" y="520" width="50" height="45" as="geometry"/>
                </mxCell>
                <mxCell id="rVlqbmgQ-LGlEKJooQ9A-71" style="edgeStyle=orthogonalEdgeStyle;rounded=0;orthogonalLoop=1;jettySize=auto;html=1;entryX=0;entryY=0.5;entryDx=0;entryDy=0;startArrow=none;startFill=0;endArrow=classic;endFill=1;" parent="1" source="rVlqbmgQ-LGlEKJooQ9A-67" target="rVlqbmgQ-LGlEKJooQ9A-46" edge="1">
                    <mxGeometry relative="1" as="geometry"/>
                </mxCell>
                <mxCell id="3uQAn1fJEeTq8zL6ZX9e-11" value="" style="swimlane;startSize=0;" parent="1" vertex="1">
                    <mxGeometry x="-255" y="365" width="380" height="250" as="geometry"/>
                </mxCell>
                <mxCell id="3uQAn1fJEeTq8zL6ZX9e-23" style="edgeStyle=orthogonalEdgeStyle;rounded=0;orthogonalLoop=1;jettySize=auto;html=1;entryX=0;entryY=0.5;entryDx=0;entryDy=0;entryPerimeter=0;" parent="3uQAn1fJEeTq8zL6ZX9e-11" source="rVlqbmgQ-LGlEKJooQ9A-66" target="rVlqbmgQ-LGlEKJooQ9A-67" edge="1">
                    <mxGeometry relative="1" as="geometry"/>
                </mxCell>
                <mxCell id="rVlqbmgQ-LGlEKJooQ9A-66" value="Create account/ Send token" style="rounded=0;whiteSpace=wrap;html=1;" parent="3uQAn1fJEeTq8zL6ZX9e-11" vertex="1">
                    <mxGeometry x="45" y="25" width="120" height="60" as="geometry"/>
                </mxCell>
                <mxCell id="rVlqbmgQ-LGlEKJooQ9A-67" value="MongoDB" style="shape=cylinder3;whiteSpace=wrap;html=1;boundedLbl=1;backgroundOutline=1;size=15;" parent="3uQAn1fJEeTq8zL6ZX9e-11" vertex="1">
                    <mxGeometry x="165" y="130" width="60" height="80" as="geometry"/>
                </mxCell>
                <mxCell id="3uQAn1fJEeTq8zL6ZX9e-22" style="edgeStyle=orthogonalEdgeStyle;rounded=0;orthogonalLoop=1;jettySize=auto;html=1;entryX=1;entryY=0.5;entryDx=0;entryDy=0;entryPerimeter=0;" parent="3uQAn1fJEeTq8zL6ZX9e-11" source="3uQAn1fJEeTq8zL6ZX9e-18" target="rVlqbmgQ-LGlEKJooQ9A-67" edge="1">
                    <mxGeometry relative="1" as="geometry"/>
                </mxCell>
                <mxCell id="3uQAn1fJEeTq8zL6ZX9e-18" value="Create account/ Send token" style="rounded=0;whiteSpace=wrap;html=1;" parent="3uQAn1fJEeTq8zL6ZX9e-11" vertex="1">
                    <mxGeometry x="215" y="25" width="120" height="60" as="geometry"/>
                </mxCell>
                <mxCell id="3uQAn1fJEeTq8zL6ZX9e-19" style="edgeStyle=orthogonalEdgeStyle;rounded=0;orthogonalLoop=1;jettySize=auto;html=1;entryX=0.5;entryY=1;entryDx=0;entryDy=0;entryPerimeter=0;" parent="1" source="rVlqbmgQ-LGlEKJooQ9A-66" target="rVlqbmgQ-LGlEKJooQ9A-18" edge="1">
                    <mxGeometry relative="1" as="geometry"/>
                </mxCell>
                <mxCell id="3uQAn1fJEeTq8zL6ZX9e-20" style="edgeStyle=orthogonalEdgeStyle;rounded=0;orthogonalLoop=1;jettySize=auto;html=1;entryX=0.5;entryY=1;entryDx=0;entryDy=0;entryPerimeter=0;" parent="1" source="3uQAn1fJEeTq8zL6ZX9e-18" target="rVlqbmgQ-LGlEKJooQ9A-18" edge="1">
                    <mxGeometry relative="1" as="geometry"/>
                </mxCell>
            </root>
        </mxGraphModel>
    </diagram>
</mxfile>